<?xml version="1.0" standalone="no"?><!DOCTYPE svg PUBLIC "-//W3C//DTD SVG 1.1//EN" "http://www.w3.org/Graphics/SVG/1.1/DTD/svg11.dtd"><svg t="1587432095405" class="icon" viewBox="0 0 1024 1024" version="1.1" xmlns="http://www.w3.org/2000/svg" p-id="4819" xmlns:xlink="http://www.w3.org/1999/xlink" width="64" height="64"><defs><style type="text/css"></style></defs><path d="M827.21064355 677.0242416c-11.0539363 0-20.01466016 8.87911868-20.13667181 19.93701641v123.5161708c0 27.93273926-1.40788738 24.27397508-29.30022019 24.27397508H214.83033703c-27.89233281 0-38.38216342 3.65480276-38.38216343-24.27397508V200.32957701c0-27.93749296 10.48983061-27.29257437 38.38216341-27.29257437h562.94737596c27.8931251 0 29.30022021-0.64491858 29.3002202 27.29257437v120.49836379h0.28442969c1.56555176 9.56840515 9.84887343 16.88276438 19.85224211 16.88276438 10.0152529 0 18.33501962-7.31435923 19.89660995-16.88355666h0.24402326V180.35136186c0-27.8931251-22.5864117-50.51994324-50.48745963-50.51994323H186.65436678c-27.89233281 0-50.48349821 22.62761042-50.4834982 50.51994324v657.04527635c0 27.93353156 22.5864117 50.5643111 50.4834982 50.56431111h610.20945036c27.90025564 0 50.48745962-22.63077956 50.48745962-50.56351883V696.96046573c-0.12201162-11.0539363-9.08273552-19.9378087-20.14063321-19.93780869z m62.42479177-177.04995963a22.29722829 22.29722829 0 0 0-4.01925307-5.63075725 21.38134883 21.38134883 0 0 0-3.1318958-2.57175152L687.14367507 296.30994246c-7.31356694-7.31435923-19.61297256-6.83106642-27.45420017 1.04581394-7.87371122 7.8745035-8.36413456 20.17390912-1.04264479 27.45499244l163.22144729 163.34266664H414.79075218c-11.09434275 0-20.13587951 9.00509174-20.13587951 20.13984093 0 11.13158006 9.04153678 20.17787053 20.13587951 20.17787052h408.24138935L658.64683011 692.94517409c-7.31752836 7.30960552-6.83502784 19.60901114 1.04264479 27.48668376 7.84122761 7.88163406 20.13984095 8.3245204 27.45420017 1.04660623l195.34061138-195.49827578c1.12345768-0.72573148 2.17085618-1.60675049 3.1318958-2.57175151 1.68756338-1.6915248 3.0138456-3.61835773 4.01925307-5.63471868 1.36748094-2.49014634 2.08925099-5.30195969 2.16689476-8.15734862v-1.44433243c-0.07764376-2.85221979-0.8002061-5.66641001-2.16689476-8.19775508z" p-id="4820"></path></svg>